<svg xmlns="http://www.w3.org/2000/svg" version="1.1" xmlns:xlink="http://www.w3.org/1999/xlink"
     xmlns:svgjs="http://svgjs.com/svgjs" width="16" height="16">
    <svg version="1.1" id="SvgjsSvg1000" xmlns="http://www.w3.org/2000/svg" xmlns:xlink="http://www.w3.org/1999/xlink" x="0px" y="0px" viewBox="0 0 16 16" style="enable-background:new 0 0 16 16;" xml:space="preserve">
        <style type="text/css">
            .st0{fill:#0D0B68;}
            .st1{fill:#EDEFFF;}
            .st2{fill:#7D71FF;}
        </style>
        <path class="st0" d="M3.46,0h9.07c1.91,0,3.47,1.55,3.47,3.47v9.07c0,1.91-1.55,3.47-3.47,3.47H3.46C1.54,16-0.01,14.44-0.01,12.53
	        V3.46C-0.01,1.55,1.54,0,3.46,0z"></path>
        <path class="st1" d="M6.45,5.47H2.78c-0.38,0-0.69,0.31-0.69,0.69v3.67c0,0.38,0.31,0.69,0.69,0.69h3.67
	        c0.38,0,0.69-0.31,0.69-0.69V6.16C7.14,5.78,6.84,5.47,6.45,5.47z"></path>
        <path class="st2" d="M12.05,10.53H8.43c-0.47,0-0.8-0.45-0.66-0.9l1.17-3.67C9.03,5.66,9.3,5.47,9.6,5.47h3.61
	        c0.47,0,0.8,0.45,0.66,0.9l-1.17,3.67C12.6,10.33,12.35,10.53,12.05,10.53L12.05,10.53z"></path>
    </svg>
    <style>
        @media (prefers-color-scheme: dark) { :root {
            .st0{fill:#7D71FF;}
            .st1{fill:#0D0B68;}
            .st2{fill:#EDEFFF;}
        } }
    </style>
</svg>