<svg xmlns="http://www.w3.org/2000/svg" version="1.1" xmlns:xlink="http://www.w3.org/1999/xlink"
     xmlns:svgjs="http://svgjs.com/svgjs">
    <svg version="1.1" id="SvgjsSvg1000" xmlns="http://www.w3.org/2000/svg" xmlns:xlink="http://www.w3.org/1999/xlink" x="0px" y="0px" viewBox="0 0 260 260" style="enable-background:new 0 0 16 16;" xml:space="preserve">
        <style type="text/css">
            .st0{fill:#0D0B68;}
            .st1{fill:#EDEFFF;}
            .st2{fill:#7D71FF;}
        </style>
        <g class="small">
            <path class="st0" d="M56.2249 0H203.612C234.65 0 260 25.1875 260 56.3875V203.775C260 234.812 234.812 260.163 203.612 260.163H56.2249C25.0249 260 -0.162598 234.65 -0.162598 203.612V56.225C-0.162598 25.1875 25.0249 0 56.2249 0Z"/>
            <path class="st1" d="M104.812 88.8877H45.1749C38.9999 88.8877 33.9624 93.9252 33.9624 100.1V159.738C33.9624 165.913 38.9999 170.95 45.1749 170.95H104.812C110.987 170.95 116.025 165.913 116.025 159.738V100.1C116.025 93.9252 111.15 88.8877 104.812 88.8877Z"/>
            <path class="st2" d="M195.812 171.113H136.987C129.35 171.113 123.987 163.8 126.262 156.488L145.275 96.8502C146.737 91.9752 151.125 88.8877 156 88.8877H214.662C222.3 88.8877 227.662 96.2002 225.387 103.513L206.375 163.15C204.75 167.863 200.687 171.113 195.812 171.113Z"/>
        </g>
        <g class="big">
            <path class="st0" d="M56.333 0h147.334C234.78 0 260 25.22 260 56.333v147.334C260 234.78 234.78 260 203.667 260H56.333C25.22 260 0 234.78 0 203.667V56.333C0 25.22 25.22 0 56.333 0Z"></path>
            <path class="st1" d="M69.969 131.632H51.755c-.737 0-1.243.304-1.243 1.113v3.409c0 2.845-1.675 4.463-4.405 4.463-2.73 0-4.464-1.618-4.464-4.463v-9.043c0-.491.376-.866.997-.866h22.62c.809 0 1.242-.304 1.242-1.113v-14.011c0-.809-.433-1.112-1.242-1.112H42.64c-.621 0-.997-.245-.997-.867v-8.868c0-.867-.433-1.17-1.242-1.17H22.244c-.736 0-1.242.303-1.242 1.112v8.926c0 .622-.375.867-.996.867h-4.767c-.737 0-1.242.303-1.242 1.112v14.011c0 .809.49 1.113 1.242 1.113h4.767c.62 0 .996.245.996.866v9.043c0 14.256 10.603 24.728 25.105 24.728S71.21 150.41 71.21 136.154v-3.352c0-.852-.433-1.17-1.242-1.17Zm53.603-21.623h-18.156c-.737 0-1.243.303-1.243 1.112v25.032c0 2.73-1.733 4.464-4.463 4.464s-4.463-1.734-4.463-4.464v-24.974c0-.867-.434-1.17-1.243-1.17H75.862c-.736 0-1.242.303-1.242 1.112v25.032c0 14.257 10.602 24.729 25.104 24.729 14.503 0 25.105-10.472 25.105-24.729v-24.974c-.015-.867-.448-1.17-1.257-1.17Z"></path>
            <path class="st2" d="M244.732 109.879h-18.59c-.924 0-1.3.245-1.545 1.112l-7.497 25.408c-.867 2.845-3.163 4.217-5.706 4.217-2.296 0-4.275-1.487-3.408-4.405l7.496-24.917c.303-.996-.13-1.43-1.112-1.43h-18.966c-.809 0-1.3.304-1.545 1.112l-6.63 22.866c-5.027 17.232 6.688 27.026 21.074 27.026 15.99 0 25.538-7.873 30.247-24.108l7.381-25.466c.231-.852-.072-1.415-1.199-1.415Zm-60.724.13h-21.999c-.737 0-1.055-.303-.809-1.055l2.73-8.868c.188-.564.058-.997-.621-.997h-18.475c-.924 0-1.3.188-1.545 1.054l-2.918 8.985c-.246.679-.491.866-1.242.866h-5.027c-.867 0-1.3.246-1.545 1.055l-3.973 13.578c-.303 1.112-.187 1.617.867 1.617h4.839c.679 0 .924.376.809.997l-1.43 5.763c-4.521 18.287 6.442 27.893 20.02 27.893s24.411-7.685 28.383-21.45l1.806-6.197c.303-.997.057-1.43-1.055-1.43h-17.781c-.809 0-1.488.246-1.733 1.112l-1.055 3.409c-.924 3.106-3.163 4.406-5.575 4.406-2.412 0-4.088-1.358-3.221-4.464l2.672-9.23c.188-.563.433-.809 1.3-.809h21.941c1.242 0 1.676-.245 1.979-1.357l3.842-13.448c.289-.997-.014-1.43-1.184-1.43Z"></path>
        </g>
    </svg>
    <style>
        @media (prefers-color-scheme: dark) { :root {
            .st0{fill:#7D71FF;}
            .st1{fill:#0D0B68;}
            .st2{fill:#EDEFFF;}
        } }
        @media (min-width: 17px) { {
        .big{display:none;}
        } }
    </style>
</svg>