<svg height="700pt" preserveAspectRatio="xMidYMid meet" viewBox="0 0 700 700" width="700pt" xmlns="http://www.w3.org/2000/svg"><path d="m1379 6996c-2-3-27-7-54-9-210-20-457-112-655-245-328-219-555-552-642-942l-23-105v-2195c0-2081 1-2199 18-2275 46-204 121-385 225-540 75-113 98-142 192-236 179-180 363-294 605-375 55-18 114-35 130-38 17-3 41-8 55-11s45-9 70-13c56-9 4350-9 4405-1 500 82 913 382 1134 826 62 125 116 285 136 403 3 19 9 55 13 80 9 58 9 4289 0 4355-7 49-12 78-24 140-8 36-52 182-64 210-22 52-101 213-117 240-140 238-393 465-653 588-88 41-225 92-279 102-12 2-30 6-39 9s-35 8-57 11-65 9-95 15c-53 8-4272 15-4281 6zm1555-2409c93-41 155-116 180-217 8-32 11-291 11-880-1-964 5-902-94-1001-98-98-36-92-1001-92-459 0-852 3-873 7-88 14-173 84-216 175l-25 56-1 853c-1 789 1 857 17 910 30 98 121 180 222 202 17 3 416 6 886 5 787-1 858-2 894-18zm2931 8c55-15 131-71 163-121 73-109 69-172-28-474-40-124-80-252-90-285s-27-87-38-120c-44-132-105-323-122-380-51-173-202-630-219-663-26-51-75-98-136-130l-50-27h-865-865l-57 28c-80 39-143 117-165 202-14 58-2 136 47 290 29 88 82 257 120 375 37 118 118 373 180 565 124 389 143 448 145 455 45 172 112 251 240 286 49 12 1694 12 1740-1z" transform="matrix(.1 0 0 -.1 0 700)"/></svg>